<mxfile host="app.diagrams.net" modified="2023-05-25T17:03:41.565Z" agent="Mozilla/5.0 (Windows NT 10.0; Win64; x64) AppleWebKit/537.36 (KHTML, like Gecko) Chrome/113.0.0.0 Safari/537.36" etag="cSPAOhx_Ewx2-YrDsiUE" version="21.3.3" type="device">
  <diagram name="Página-1" id="BeMLYfoXVGiBaYgm-rjw">
    <mxGraphModel dx="1434" dy="796" grid="1" gridSize="10" guides="1" tooltips="1" connect="1" arrows="1" fold="1" page="1" pageScale="1" pageWidth="827" pageHeight="1169" math="0" shadow="0">
      <root>
        <mxCell id="0" />
        <mxCell id="1" parent="0" />
        <mxCell id="mX-wqZSJ-xmrbxpnLPSR-2" value="INICIO" style="ellipse;whiteSpace=wrap;html=1;aspect=fixed;" vertex="1" parent="1">
          <mxGeometry x="340" y="40" width="100" height="100" as="geometry" />
        </mxCell>
        <mxCell id="mX-wqZSJ-xmrbxpnLPSR-4" value="" style="edgeStyle=orthogonalEdgeStyle;rounded=0;orthogonalLoop=1;jettySize=auto;html=1;" edge="1" parent="1" source="mX-wqZSJ-xmrbxpnLPSR-3" target="mX-wqZSJ-xmrbxpnLPSR-2">
          <mxGeometry relative="1" as="geometry" />
        </mxCell>
        <mxCell id="mX-wqZSJ-xmrbxpnLPSR-3" value="anio_nacimiento (str)&lt;br&gt;anio_actual (str)&lt;br&gt;edad (int)&lt;br&gt;nombre (str)" style="rounded=0;whiteSpace=wrap;html=1;" vertex="1" parent="1">
          <mxGeometry x="270" y="170" width="240" height="110" as="geometry" />
        </mxCell>
        <mxCell id="mX-wqZSJ-xmrbxpnLPSR-6" value="" style="edgeStyle=orthogonalEdgeStyle;rounded=0;orthogonalLoop=1;jettySize=auto;html=1;" edge="1" parent="1" source="mX-wqZSJ-xmrbxpnLPSR-5" target="mX-wqZSJ-xmrbxpnLPSR-3">
          <mxGeometry relative="1" as="geometry" />
        </mxCell>
        <mxCell id="mX-wqZSJ-xmrbxpnLPSR-5" value="Ingresa tu nombre" style="shape=document;whiteSpace=wrap;html=1;boundedLbl=1;" vertex="1" parent="1">
          <mxGeometry x="280" y="320" width="230" height="120" as="geometry" />
        </mxCell>
        <mxCell id="mX-wqZSJ-xmrbxpnLPSR-8" value="" style="edgeStyle=orthogonalEdgeStyle;rounded=0;orthogonalLoop=1;jettySize=auto;html=1;" edge="1" parent="1" source="mX-wqZSJ-xmrbxpnLPSR-7" target="mX-wqZSJ-xmrbxpnLPSR-5">
          <mxGeometry relative="1" as="geometry" />
        </mxCell>
        <mxCell id="mX-wqZSJ-xmrbxpnLPSR-7" value="Nombre" style="shape=parallelogram;perimeter=parallelogramPerimeter;whiteSpace=wrap;html=1;fixedSize=1;" vertex="1" parent="1">
          <mxGeometry x="300" y="480" width="180" height="80" as="geometry" />
        </mxCell>
        <mxCell id="mX-wqZSJ-xmrbxpnLPSR-11" value="" style="edgeStyle=orthogonalEdgeStyle;rounded=0;orthogonalLoop=1;jettySize=auto;html=1;exitX=0.5;exitY=0.836;exitDx=0;exitDy=0;exitPerimeter=0;" edge="1" parent="1" source="mX-wqZSJ-xmrbxpnLPSR-9" target="mX-wqZSJ-xmrbxpnLPSR-10">
          <mxGeometry relative="1" as="geometry" />
        </mxCell>
        <mxCell id="mX-wqZSJ-xmrbxpnLPSR-12" value="" style="edgeStyle=orthogonalEdgeStyle;rounded=0;orthogonalLoop=1;jettySize=auto;html=1;" edge="1" parent="1" source="mX-wqZSJ-xmrbxpnLPSR-9" target="mX-wqZSJ-xmrbxpnLPSR-7">
          <mxGeometry relative="1" as="geometry" />
        </mxCell>
        <mxCell id="mX-wqZSJ-xmrbxpnLPSR-9" value="Ingresa año actual" style="shape=document;whiteSpace=wrap;html=1;boundedLbl=1;" vertex="1" parent="1">
          <mxGeometry x="280" y="610" width="230" height="110" as="geometry" />
        </mxCell>
        <mxCell id="mX-wqZSJ-xmrbxpnLPSR-10" value="1" style="ellipse;whiteSpace=wrap;html=1;" vertex="1" parent="1">
          <mxGeometry x="355" y="815" width="80" height="80" as="geometry" />
        </mxCell>
        <mxCell id="mX-wqZSJ-xmrbxpnLPSR-13" value="1" style="ellipse;whiteSpace=wrap;html=1;aspect=fixed;" vertex="1" parent="1">
          <mxGeometry x="690" y="40" width="80" height="80" as="geometry" />
        </mxCell>
        <mxCell id="mX-wqZSJ-xmrbxpnLPSR-16" value="" style="edgeStyle=orthogonalEdgeStyle;rounded=0;orthogonalLoop=1;jettySize=auto;html=1;" edge="1" parent="1" source="mX-wqZSJ-xmrbxpnLPSR-15" target="mX-wqZSJ-xmrbxpnLPSR-13">
          <mxGeometry relative="1" as="geometry" />
        </mxCell>
        <mxCell id="mX-wqZSJ-xmrbxpnLPSR-18" value="" style="edgeStyle=orthogonalEdgeStyle;rounded=0;orthogonalLoop=1;jettySize=auto;html=1;" edge="1" parent="1" source="mX-wqZSJ-xmrbxpnLPSR-15" target="mX-wqZSJ-xmrbxpnLPSR-17">
          <mxGeometry relative="1" as="geometry" />
        </mxCell>
        <mxCell id="mX-wqZSJ-xmrbxpnLPSR-15" value="anio_actual" style="shape=parallelogram;perimeter=parallelogramPerimeter;whiteSpace=wrap;html=1;fixedSize=1;" vertex="1" parent="1">
          <mxGeometry x="620" y="170" width="160" height="90" as="geometry" />
        </mxCell>
        <mxCell id="mX-wqZSJ-xmrbxpnLPSR-17" value="Si&lt;br&gt;Longitud (anio_actual)=4" style="rhombus;whiteSpace=wrap;html=1;" vertex="1" parent="1">
          <mxGeometry x="620" y="300" width="170" height="170" as="geometry" />
        </mxCell>
      </root>
    </mxGraphModel>
  </diagram>
</mxfile>
